<svg class="border shadow-md" viewBox="0 0 838.5422222222222 471.68" style="width: 838.542px; height: 471.68px;" xmlns="http://www.w3.org/2000/svg" preserveAspectRatio="none"><rect class="bg" id="bg" x="0" y="0" width="838.5422222222222" height="471.68" fill="#1A2130"/><g transform="&#10;        translate(-901.4328888888888&#10;        -486.0924444444444)&#10;        scale(3.65)&#10;                        "><path d="M635.5,558.5Q580,698,414,707Q248,716,129,567.5Q10,419,131.5,274.5Q253,130,425,120.5Q597,111,644,265Q691,419,635.5,558.5Z" fill="#222b40" stroke="none" stroke-width="10"/></g><g transform="&#10;        translate(-775.6515555555555&#10;        -431.06311111111114)&#10;        scale(3.35)&#10;                        "><path d="M635.5,558.5Q580,698,414,707Q248,716,129,567.5Q10,419,131.5,274.5Q253,130,425,120.5Q597,111,644,265Q691,419,635.5,558.5Z" fill="#263048" stroke="none" stroke-width="10"/></g><g transform="&#10;        translate(-645.6775111111111&#10;        -374.19946666666664)&#10;        scale(3.04)&#10;                        "><path d="M635.5,558.5Q580,698,414,707Q248,716,129,567.5Q10,419,131.5,274.5Q253,130,425,120.5Q597,111,644,265Q691,419,635.5,558.5Z" fill="#2a3550" stroke="none" stroke-width="10"/></g><g transform="&#10;        translate(-519.8961777777779&#10;        -319.17013333333335)&#10;        scale(2.74)&#10;                        "><path d="M635.5,558.5Q580,698,414,707Q248,716,129,567.5Q10,419,131.5,274.5Q253,130,425,120.5Q597,111,644,265Q691,419,635.5,558.5Z" fill="#2e3a58" stroke="none" stroke-width="10"/></g><g transform="&#10;        translate(-389.92213333333336&#10;        -262.3064888888889)&#10;        scale(2.43)&#10;                        "><path d="M635.5,558.5Q580,698,414,707Q248,716,129,567.5Q10,419,131.5,274.5Q253,130,425,120.5Q597,111,644,265Q691,419,635.5,558.5Z" fill="#323f60" stroke="none" stroke-width="10"/></g><g transform="&#10;        translate(-264.1407999999999&#10;        -207.27715555555554)&#10;        scale(2.13)&#10;                        "><path d="M635.5,558.5Q580,698,414,707Q248,716,129,567.5Q10,419,131.5,274.5Q253,130,425,120.5Q597,111,644,265Q691,419,635.5,558.5Z" fill="#364468" stroke="none" stroke-width="10"/></g><g transform="&#10;        translate(-138.3594666666667&#10;        -152.24782222222223)&#10;        scale(1.83)&#10;                        "><path d="M635.5,558.5Q580,698,414,707Q248,716,129,567.5Q10,419,131.5,274.5Q253,130,425,120.5Q597,111,644,265Q691,419,635.5,558.5Z" fill="#3a4970" stroke="none" stroke-width="10"/></g><g transform="&#10;        translate(-8.385422222222218&#10;        -95.38417777777778)&#10;        scale(1.52)&#10;                        "><path d="M635.5,558.5Q580,698,414,707Q248,716,129,567.5Q10,419,131.5,274.5Q253,130,425,120.5Q597,111,644,265Q691,419,635.5,558.5Z" fill="#3e4e78" stroke="none" stroke-width="10"/></g><g transform="&#10;        translate(117.39591111111112&#10;        -40.35484444444444)&#10;        scale(1.22)&#10;                        "><path d="M635.5,558.5Q580,698,414,707Q248,716,129,567.5Q10,419,131.5,274.5Q253,130,425,120.5Q597,111,644,265Q691,419,635.5,558.5Z" fill="#425380" stroke="none" stroke-width="10"/></g><g transform="&#10;        translate(247.36995555555555&#10;        16.508799999999994)&#10;        scale(0.91)&#10;                        "><path d="M635.5,558.5Q580,698,414,707Q248,716,129,567.5Q10,419,131.5,274.5Q253,130,425,120.5Q597,111,644,265Q691,419,635.5,558.5Z" fill="#465888" stroke="none" stroke-width="10"/></g><g transform="&#10;        translate(373.15128888888887&#10;        71.53813333333333)&#10;        scale(0.61)&#10;                        "><path d="M635.5,558.5Q580,698,414,707Q248,716,129,567.5Q10,419,131.5,274.5Q253,130,425,120.5Q597,111,644,265Q691,419,635.5,558.5Z" fill="#4a5d90" stroke="none" stroke-width="10"/></g><g transform="&#10;        translate(503.1253333333333&#10;        128.40177777777777)&#10;        scale(0.30)&#10;                        "><path d="M635.5,558.5Q580,698,414,707Q248,716,129,567.5Q10,419,131.5,274.5Q253,130,425,120.5Q597,111,644,265Q691,419,635.5,558.5Z" fill="#4e6298" stroke="none" stroke-width="10"/></g></svg>