<svg class="border shadow-md" viewBox="0 0 838.5422222222222 471.68" style="width: 838.542px; height: 471.68px;" xmlns="http://www.w3.org/2000/svg" preserveAspectRatio="none"><rect class="bg" id="bg" x="0" y="0" width="838.5422222222222" height="471.68" fill="#fff7f7"></rect><g transform="
        translate(-1308.1258666666665
        -636.5059555555555)
        scale(4.77)
                        "><path d="M655.5,534.5Q552,650,381.5,715.5Q211,781,112,600Q13,419,124.5,260.5Q236,102,395.5,143Q555,184,657,301.5Q759,419,655.5,534.5Z" fill="#F1F4FF" stroke="none" stroke-width="10"></path></g><g transform="
        translate(-1056.5631999999998
        -526.4472888888889)
        scale(4.17)
                        "><path d="M655.5,534.5Q552,650,381.5,715.5Q211,781,112,600Q13,419,124.5,260.5Q236,102,395.5,143Q555,184,657,301.5Q759,419,655.5,534.5Z" fill="#eaeeff" stroke="none" stroke-width="10"></path></g><g transform="
        translate(-809.1932444444444
        -418.22293333333334)
        scale(3.58)
                        "><path d="M655.5,534.5Q552,650,381.5,715.5Q211,781,112,600Q13,419,124.5,260.5Q236,102,395.5,143Q555,184,657,301.5Q759,419,655.5,534.5Z" fill="#e3e8ff" stroke="none" stroke-width="10"></path></g><g transform="
        translate(-557.6305777777777
        -308.16426666666666)
        scale(2.98)
                        "><path d="M655.5,534.5Q552,650,381.5,715.5Q211,781,112,600Q13,419,124.5,260.5Q236,102,395.5,143Q555,184,657,301.5Q759,419,655.5,534.5Z" fill="#dce2ff" stroke="none" stroke-width="10"></path></g><g transform="
        translate(-306.067911111111
        -198.10559999999998)
        scale(2.38)
                        "><path d="M655.5,534.5Q552,650,381.5,715.5Q211,781,112,600Q13,419,124.5,260.5Q236,102,395.5,143Q555,184,657,301.5Q759,419,655.5,534.5Z" fill="#d5dcff" stroke="none" stroke-width="10"></path></g><g transform="
        translate(-58.69795555555555
        -89.88124444444443)
        scale(1.79)
                        "><path d="M655.5,534.5Q552,650,381.5,715.5Q211,781,112,600Q13,419,124.5,260.5Q236,102,395.5,143Q555,184,657,301.5Q759,419,655.5,534.5Z" fill="#ced6ff" stroke="none" stroke-width="10"></path></g><g transform="
        translate(192.86471111111118
        20.177422222222233)
        scale(1.19)
                        "><path d="M655.5,534.5Q552,650,381.5,715.5Q211,781,112,600Q13,419,124.5,260.5Q236,102,395.5,143Q555,184,657,301.5Q759,419,655.5,534.5Z" fill="#c7d0ff" stroke="none" stroke-width="10"></path></g><g transform="
        translate(440.2346666666667
        128.40177777777777)
        scale(0.60)
                        "><path d="M655.5,534.5Q552,650,381.5,715.5Q211,781,112,600Q13,419,124.5,260.5Q236,102,395.5,143Q555,184,657,301.5Q759,419,655.5,534.5Z" fill="#c0caff" stroke="none" stroke-width="10"></path></g></svg>